<svg id="Layer_1" data-name="Layer 1" xmlns="http://www.w3.org/2000/svg" xmlns:xlink="http://www.w3.org/1999/xlink" viewBox="0 0 296.32 311.21"><defs><style>.cls-1{fill:url(#linear-gradient);}.cls-2{fill:#fff;stroke:#231f20;stroke-miterlimit:10;}</style><linearGradient id="linear-gradient" x1="185.35" y1="284.71" x2="446.28" y2="134.06" gradientUnits="userSpaceOnUse"><stop offset="0" stop-color="#fff33b"/><stop offset="0" stop-color="#fee93c"/><stop offset="0" stop-color="#fdce3e"/><stop offset="0" stop-color="#fcbb3f"/><stop offset="0" stop-color="#fbb040"/><stop offset="0" stop-color="#fbac40"/><stop offset="1" stop-color="#f36c29"/></linearGradient></defs><path className="cls-1" d="M266.1,70.12c42.54-34,110.4-42.05,133-16.55,8.12,9.17,10.44,22.76,14.12,44.3,5.56,32.6-1.62,43.26,8.8,56.81,8.37,10.86,15.46,7.2,33.91,23.33,7.37,6.45,16.07,14.05,22,25.55,11.49,22.18,8.4,50.46-3.52,71.34-2.65,4.62-14.55,25.46-37.88,33-13.1,4.25-21.34,1.56-41.39,0-9.2-.71-41.91-3.25-66.94,2.2-44.4,9.69-47.68,40.86-76.18,39.64-27.65-1.19-51.13-31.66-59.89-56.81-4.43-12.71-8.05-32.54,14.09-99.08C229.15,125,240.61,90.52,266.1,70.12Z" transform="translate(-188.79 -38.58)"/><path className="cls-2" d="M228,225.25" transform="translate(-188.79 -38.58)"/></svg>